<svg xmlns="http://www.w3.org/2000/svg" width="17" height="13" viewBox="0 0 17 13">
    <g fill="#FFF" fill-rule="nonzero">
        <path d="M17 6.25C17 3.832 12.497 0 8.5 0 4.38 0 0 3.577 0 6.25s4.38 6.25 8.5 6.25c3.997 0 8.5-3.832 8.5-6.25zM3.83 8.713C2.72 7.808 2 6.727 2 6.25c0-.477.721-1.558 1.83-2.463C5.191 2.675 6.851 2 8.5 2c1.61 0 3.254.721 4.655 1.914C14.232 4.829 15 5.946 15 6.25c0 .304-.768 1.42-1.845 2.336C11.754 9.78 10.11 10.5 8.5 10.5c-1.648 0-3.308-.675-4.67-1.787z"/>
        <path d="M11.828 6.25c0-1.97-1.463-3.61-3.328-3.61-1.865 0-3.328 1.64-3.328 3.61S6.635 9.86 8.5 9.86c1.865 0 3.328-1.64 3.328-3.61zm-4.656 0c0-.913.622-1.61 1.328-1.61.706 0 1.328.697 1.328 1.61 0 .913-.622 1.61-1.328 1.61-.706 0-1.328-.697-1.328-1.61z"/>
    </g>
</svg>
