<svg xmlns="http://www.w3.org/2000/svg" width="69" height="31" viewBox="0 0 69 31">
    <path fill="#FFF" fill-rule="evenodd" d="M61.352 14.735c-.076-.414-.113-1.47.5-2.598.393-.723 1.284-1.075 2.002-.725.48.234.326 1.157-.471 2.024-.89.968-1.708 1.224-2.03 1.3m-10.101 2.857c-.699-.296-.832-1.206-.25-2.839.72-2.016 1.999-3.19 2.834-2.98.89.305.19 3.037-.715 4.792-.39.81-1.171 1.322-1.87 1.027m.51 9.066c-.606 1.23-2.191 2.612-2.682 2.009-.464-.681-.407-1.66.221-2.669.66-1.062 1.943-2.161 3.55-3.089 0 0-.213 2.133-1.088 3.749m-9.213-9.745c-.257.57-.961 1.005-1.533.89-.704-.141-1.16-1.072-.808-2.598.457-1.961 2.141-3.73 3.255-3.289.674.473-.012 3.22-.914 4.997m-22.345.854c-.47-.175-.722-1.284-.368-2.81.458-1.962 2.475-3.925 3.243-3.175.769.75-.802 6.644-2.875 5.985m46.909-2.11c-.484.212-1.12 1.69-3.046 2.016-.892.151-2.012-.076-2.24-.603.322-.226 1.395-.826 2.145-1.375.911-.697 1.502-1.107 1.937-2.034.703-1.446.636-2.792-.024-3.505-1.368-1.48-4.001-1.28-5.44.168-1.48 1.668-1.766 4.077-1.522 5.861-.607.64-2.316 1.733-2.95 2.194.172-1.976 1.243-5.47 1.305-7.343.032-.967-1.467-1.104-1.789-.77-1.652-1.44-4.2-.439-5.524 1.298-.907 1.173-1.263 2.122-1.699 3.712-.58 2.114-1.467 2.71-2.268 2.228-.582-.434-.3-1.777-.033-3.368.29-1.857.636-3.242.38-3.652-.373-.497-1.094-.59-1.757-.303-2.52-1.455-4.57.202-6.215 3.033-.665 1.144-2.077 1.692-2.63.886-.555-.805.132-4.176-.566-4.69-.406-.336-1.083-.251-1.457-.08-1.483.676-1.749 1.845-2.429 2.217-.05-1.284.048-1.623-.26-2.072-.615-.45-1.278-.098-1.667.273-.648.741-.231 1.516-.328 3.172-.082 1.156-.304 2.16-.657 3.39-.247.853-2.303 2.848-3.138.977-.52-1.16 1.264-5.548.923-6.565-.278-.825-1.565-.769-1.919-.588-.934-.94-2.483-.818-3.927.174-2.309 1.59-3.555 5.165-3.204 7.214.402 2.364 2.013 2.866 3.583 2.769 1.215-.075 2.05-.829 2.695-1.845.373 1.172.991 1.717 1.737 1.944 1.018.21 2.314-.263 2.945-1.417.35.798.678 1.001 1.088 1.03.969.066 1.743-1.466 2.05-2.99.487-2.171.527-2.797.835-3.465.318-.69 1.08-1.431 1.41-.436.361 1.088-.081 2.169.782 3.163.542.623 1.982.754 3.367.029-.193 1.435.253 2.91 1.532 3.619.573.308 2.77.723 4.738-1.326.098.817.86 1.622 1.71 1.686.849.064 1.983-.104 3.117-1.275.295.655 1.025.998 1.907 1.114 1.02.133 1.796.031 2.808-.471-1.06.803-5.045 3.49-6.187 5.443-.947 1.471-.894 3.54-.442 4.698.561 1.052 1.556 1.364 3.113 1.062 1.415-.49 2.68-1.234 3.523-2.736.602-1.074 1.684-3.473 1.88-6.584 1.758-1.507 3.067-2.26 4.39-3.117.481 1.102 2.046 1.636 2.663 1.723 1.785.264 3.52-.285 4.783-1.167 1.163-.811 1.767-1.391 1.86-2.298.095-.924-1.086-1.502-1.888-1.019m-56.057-3.314c-.956.292-1.387 1.65-.61 2.47.825.644 1.953.084 2.574.672.762.92.034 1.853-.435 2.238-2.44 2.004-7.559 2.697-8.892-.405-1.685-3.92-.279-7.575 1.63-10.663C7.53 3.085 10.365 1.858 12.535 3c1.34.931.62 2.618.494 3.805-.056.535.176 1.06.478 1.21 2.43.993 2.969-5.024 1.361-6.56C11.435-1.82 5.146.79 2.38 5.746 1.21 7.845.048 9.943.001 13.896c-.043 3.498 1.075 6.414 3.611 7.601 2.58 1.211 6.656 1.03 9.184-1.137-.114 2.173-.861 4.225-2.17 4.804-2.59.93-3.909-.212-4.924-.087-.368.048-1.004.306-1.135.98-.323 2.185 4.784 3.302 7.741 1.393 4.184-2.7 4.21-12.325 2.982-13.972-.932-1.248-3.248-1.437-4.234-1.135"/>
</svg>
